
<svg xmlns="http://www.w3.org/2000/svg" viewBox="0 0 32 32">
  <!-- Background shape -->
  <rect width="32" height="32" rx="6" fill="#4f46e5" />
  
  <!-- "C" for Create - top left -->
  <path d="M9 8 A4 4 0 0 0 9 16" stroke="#10b981" stroke-width="2.5" fill="none" stroke-linecap="round" />
  
  <!-- "R" for Read - top right -->
  <path d="M23 8 L23 16 M23 8 A4 4 0 0 0 23 12 L23 12 L26 16" stroke="#ffffff" stroke-width="2.5" fill="none" stroke-linecap="round" stroke-linejoin="round" />
  
  <!-- "U" for Update - bottom left -->
  <path d="M9 16 L9 22 A4 4 0 0 0 17 22 L17 16" stroke="#f59e0b" stroke-width="2.5" fill="none" stroke-linecap="round" />
  
  <!-- "D" for Delete - bottom right -->
  <path d="M23 16 L23 24 M23 16 A4 4 0 0 1 23 24" stroke="#ef4444" stroke-width="2.5" fill="none" stroke-linecap="round" />
  
  <!-- Central database icon -->
  <circle cx="16" cy="16" r="3" fill="#ffffff" />
  <path d="M13 13 L16 10 L19 13 M13 19 L16 22 L19 19" stroke="#ffffff" stroke-width="1.5" fill="none" />
</svg>
